<svg width="30" height="30" viewBox="0 0 30 30" fill="none" xmlns="http://www.w3.org/2000/svg">
<circle cx="15" cy="15" r="15" fill="#820905"/>
<g clip-path="url(#clip0_87_407)">
<path d="M23.6084 6.63863C23.2866 6.34383 22.8293 6.24559 22.4148 6.38219L4.82934 12.1791C4.35009 12.3371 4.02509 12.7649 4.00138 13.2689C3.9777 13.773 4.2611 14.2294 4.72337 14.4317L9.07239 16.3345C9.0936 16.433 10.3421 22.2234 10.3845 22.4203C10.439 22.6731 10.5674 22.8983 10.8392 22.9675C11.1142 23.0376 11.3084 22.8873 11.5136 22.7337C11.6277 22.6482 14.7409 20.3171 14.7409 20.3171L18.5139 23.4046C18.7337 23.5845 19.0023 23.6783 19.2761 23.6783C19.4065 23.6783 19.5382 23.657 19.6662 23.6136C20.0633 23.4789 20.3577 23.1548 20.4537 22.7467L23.968 7.80519C24.0679 7.38039 23.9301 6.93344 23.6084 6.63863ZM11.7947 17.4249C11.7925 17.43 11.7904 17.4357 11.7884 17.4426L11.0609 19.9843L10.2491 16.2189L15.8318 13.1171L11.9286 17.1983C11.8671 17.2626 11.8219 17.3403 11.7947 17.4249ZM12.0256 20.8829L12.356 19.7284L12.6721 18.6241L13.8045 19.5509L12.0256 20.8829ZM22.8245 7.53621L19.3103 22.4777C19.3085 22.4851 19.3062 22.4954 19.289 22.5012C19.272 22.507 19.2637 22.5004 19.2578 22.4955L15.1293 19.1171C15.1291 19.117 15.1291 19.1169 15.129 19.1168L13.2161 17.5515L19.3615 11.1258C19.5622 10.9159 19.5794 10.5909 19.402 10.361C19.2244 10.1311 18.9056 10.0654 18.6518 10.2065L9.55216 15.2623L5.19423 13.3555C5.18095 13.3498 5.17364 13.3465 5.1747 13.3241C5.17575 13.3017 5.18333 13.2991 5.19708 13.2946L22.7825 7.49773C22.7911 7.49496 22.8007 7.49176 22.8148 7.50465C22.829 7.51762 22.8266 7.52746 22.8245 7.53621Z" fill="white"/>
</g>
<defs>
<clipPath id="clip0_87_407">
<rect width="20" height="20" fill="white" transform="translate(4 5)"/>
</clipPath>
</defs>
</svg>
