<svg width="50" height="49" viewBox="0 0 50 49" fill="none" xmlns="http://www.w3.org/2000/svg">
<ellipse cx="25" cy="24.5" rx="25" ry="24.5" fill="#820905"/>
<g clip-path="url(#clip0_87_430)">
<path d="M31.4206 10.78H18.5793C14.4 10.78 11 14.112 11 18.2078V30.7924C11 34.888 14.4 38.22 18.5793 38.22H31.4208C35.5999 38.22 38.9999 34.888 38.9999 30.7924V18.2078C38.9999 14.112 35.5999 10.78 31.4206 10.78ZM37.3585 30.7924C37.3585 34.0009 34.6948 36.6113 31.4206 36.6113H18.5793C15.3051 36.6113 12.6415 34.0009 12.6415 30.7924V18.2078C12.6415 14.9991 15.3051 12.3887 18.5793 12.3887H31.4208C34.6948 12.3887 37.3585 14.9991 37.3585 18.2078V30.7924Z" fill="white"/>
<path d="M24.9998 16.9971C20.7782 16.9971 17.3438 20.3628 17.3438 24.5C17.3438 28.6372 20.7782 32.0029 24.9998 32.0029C29.2214 32.0029 32.6558 28.6372 32.6558 24.5C32.6558 20.3628 29.2214 16.9971 24.9998 16.9971ZM24.9998 30.3942C21.6835 30.3942 18.9852 27.7501 18.9852 24.5C18.9852 21.25 21.6835 18.6057 24.9998 18.6057C28.3163 18.6057 31.0143 21.25 31.0143 24.5C31.0143 27.7501 28.3163 30.3942 24.9998 30.3942Z" fill="white"/>
<path d="M32.8394 14.3325C31.5919 14.3325 30.5771 15.3271 30.5771 16.5495C30.5771 17.7721 31.5919 18.7668 32.8394 18.7668C34.087 18.7668 35.1019 17.7721 35.1019 16.5495C35.1019 15.3269 34.087 14.3325 32.8394 14.3325ZM32.8394 17.1579C32.4972 17.1579 32.2186 16.8849 32.2186 16.5495C32.2186 16.2139 32.4972 15.9412 32.8394 15.9412C33.1818 15.9412 33.4604 16.2139 33.4604 16.5495C33.4604 16.8849 33.1818 17.1579 32.8394 17.1579Z" fill="white"/>
</g>
<defs>
<clipPath id="clip0_87_430">
<rect width="28" height="27.44" fill="white" transform="translate(11 10.78)"/>
</clipPath>
</defs>
</svg>
