<svg width="30" height="30" viewBox="0 0 30 30" fill="none" xmlns="http://www.w3.org/2000/svg">
<circle cx="15" cy="15" r="15" fill="#820905"/>
<g clip-path="url(#clip0_87_403)">
<path d="M14.7325 22.075C17.9152 22.075 16.7804 20.0602 17.026 19.4808C17.0224 19.0482 17.0187 18.632 17.0334 18.379C17.235 18.4358 17.7108 18.6769 18.6934 19.6321C20.2105 21.1629 20.5983 22.075 21.8239 22.075H24.0798C24.7948 22.075 25.1669 21.7789 25.353 21.5305C25.5327 21.2903 25.7087 20.8687 25.5162 20.2123C25.0129 18.632 22.0778 15.9031 21.8954 15.6152C21.9229 15.5621 21.9669 15.4915 21.9898 15.4548H21.9879C22.5673 14.6894 24.7783 11.3766 25.1037 10.0511C25.1046 10.0492 25.1055 10.0465 25.1055 10.0437C25.2815 9.43875 25.1202 9.04641 24.9534 8.82458C24.7022 8.49275 24.3025 8.325 23.7626 8.325H21.5067C20.7514 8.325 20.1784 8.70541 19.8888 9.39933C19.4039 10.6322 18.0417 13.1677 17.0205 14.0652C16.9894 12.7937 17.0104 11.823 17.0269 11.1016C17.0599 9.6945 17.1663 8.325 15.706 8.325H12.1604C11.2455 8.325 10.3701 9.32416 11.3179 10.5103C12.1466 11.5498 11.6159 12.1292 11.7946 15.013C11.0979 14.2659 9.85861 12.2483 8.98228 9.66975C8.73661 8.97216 8.36444 8.32591 7.31669 8.32591H5.06078C4.14594 8.32591 3.59961 8.82458 3.59961 9.65966C3.59961 11.5352 7.75119 22.075 14.7325 22.075ZM7.31669 9.70091C7.51561 9.70091 7.53578 9.70091 7.68336 10.1198C8.58078 12.7626 10.5938 16.6731 12.0641 16.6731C13.1687 16.6731 13.1687 15.541 13.1687 15.1147L13.1678 11.7212C13.1073 10.5983 12.6984 10.0392 12.4299 9.7L15.6455 9.70366C15.6474 9.71925 15.6272 13.4574 15.6547 14.3631C15.6547 15.6492 16.6759 16.3862 18.2699 14.7728C19.952 12.8744 21.1153 10.0364 21.162 9.92091C21.2308 9.75591 21.2904 9.7 21.5067 9.7H23.7626H23.7718C23.7709 9.70275 23.7709 9.7055 23.7699 9.70825C23.5637 10.6707 21.5278 13.7379 20.8467 14.6903C20.8357 14.705 20.8256 14.7206 20.8155 14.7362C20.5158 15.2257 20.2719 15.7665 20.8568 16.5273C20.9099 16.5915 21.0493 16.7418 21.2509 16.9508C21.8779 17.598 24.0284 19.8108 24.2191 20.6908C24.0926 20.711 23.9551 20.6963 21.8239 20.7009C21.3701 20.7009 21.0154 20.0226 19.6614 18.6567C18.4441 17.4724 17.6539 16.9884 16.9344 16.9884C15.5374 16.9884 15.6391 18.1223 15.6519 19.4937C15.6565 20.9805 15.6474 20.5102 15.6574 20.6037C15.5759 20.6358 15.3421 20.7 14.7325 20.7C8.91628 20.7 5.12861 11.4682 4.98286 9.70366C5.03328 9.69908 5.72719 9.70183 7.31669 9.70091Z" fill="white"/>
</g>
<defs>
<clipPath id="clip0_87_403">
<rect width="22" height="22" fill="white" transform="translate(3.59961 4.2)"/>
</clipPath>
</defs>
</svg>
