<svg width="50" height="49" viewBox="0 0 50 49" fill="none" xmlns="http://www.w3.org/2000/svg">
<ellipse cx="25" cy="24.5" rx="25" ry="24.5" fill="#820905"/>
<g clip-path="url(#clip0_87_436)">
<path d="M24.2175 35.5251C29.4255 35.5251 27.5685 32.294 27.9705 31.365C27.9645 30.6712 27.9585 30.0038 27.9825 29.5981C28.3125 29.6892 29.091 30.0758 30.699 31.6075C33.1815 34.0624 33.816 35.5251 35.8215 35.5251H39.513C40.683 35.5251 41.292 35.0503 41.5965 34.6519C41.8905 34.2668 42.1785 33.5906 41.8635 32.5381C41.04 30.0038 36.237 25.6276 35.9385 25.166C35.9835 25.0807 36.0555 24.9676 36.093 24.9088H36.09C37.038 23.6813 40.656 18.3687 41.1885 16.2431C41.19 16.2402 41.1915 16.2358 41.1915 16.2313C41.4795 15.2611 41.2155 14.632 40.9425 14.2762C40.5315 13.7441 39.8775 13.4751 38.994 13.4751H35.3025C34.0665 13.4751 33.129 14.0851 32.655 15.1979C31.8615 17.1751 29.6325 21.2411 27.9615 22.6802C27.9105 20.6413 27.945 19.0846 27.972 17.9277C28.026 15.6713 28.2 13.4751 25.8105 13.4751H20.0085C18.5115 13.4751 17.079 15.0774 18.63 16.9796C19.986 18.6466 19.1175 19.5756 19.41 24.2002C18.27 23.0022 16.242 19.7667 14.808 15.6316C14.406 14.5129 13.797 13.4766 12.0825 13.4766H8.391C6.894 13.4766 6 14.2762 6 15.6154C6 18.623 12.7935 35.5251 24.2175 35.5251ZM12.0825 15.6816C12.408 15.6816 12.441 15.6816 12.6825 16.3534C14.151 20.5914 17.445 26.8624 19.851 26.8624C21.6585 26.8624 21.6585 25.0469 21.6585 24.3634L21.657 18.9214C21.558 17.1207 20.889 16.224 20.4495 15.6801L25.7115 15.686C25.7145 15.711 25.6815 21.7056 25.7265 23.158C25.7265 25.2204 27.3975 26.4023 30.006 23.8151C32.7585 20.7707 34.662 16.2196 34.7385 16.0344C34.851 15.7698 34.9485 15.6801 35.3025 15.6801H38.994H39.009C39.0075 15.6845 39.0075 15.6889 39.006 15.6933C38.6685 17.2368 35.337 22.1554 34.2225 23.6828C34.2045 23.7063 34.188 23.7313 34.1715 23.7563C33.681 24.5413 33.282 25.4086 34.239 26.6287C34.326 26.7316 34.554 26.9726 34.884 27.3078C35.91 28.3456 39.429 31.8942 39.741 33.3054C39.534 33.3377 39.309 33.3142 35.8215 33.3216C35.079 33.3216 34.4985 32.2338 32.283 30.0435C30.291 28.1442 28.998 27.3681 27.8205 27.3681C25.5345 27.3681 25.701 29.1865 25.722 31.3856C25.7295 33.7699 25.7145 33.0158 25.731 33.1657C25.5975 33.2172 25.215 33.3201 24.2175 33.3201C14.7 33.3201 8.502 18.5157 8.2635 15.686C8.346 15.6786 9.4815 15.683 12.0825 15.6816Z" fill="white"/>
</g>
<defs>
<clipPath id="clip0_87_436">
<rect width="36" height="35.28" fill="white" transform="translate(6 6.86011)"/>
</clipPath>
</defs>
</svg>
