<svg width="50" height="49" viewBox="0 0 50 49" fill="none" xmlns="http://www.w3.org/2000/svg">
<ellipse cx="25" cy="24.5" rx="25" ry="24.5" fill="#820905"/>
<g clip-path="url(#clip0_87_440)">
<path d="M38.4517 13.0282C38.0013 12.6237 37.361 12.4889 36.7807 12.6764L12.1611 20.6297C11.4901 20.8465 11.0351 21.4334 11.0019 22.1249C10.9688 22.8165 11.3655 23.4428 12.0127 23.7203L18.1013 26.331C18.131 26.466 19.8789 34.4106 19.9384 34.6806C20.0146 35.0275 20.1943 35.3364 20.5749 35.4315C20.9598 35.5276 21.2318 35.3214 21.519 35.1107C21.6788 34.9934 26.0373 31.7951 26.0373 31.7951L31.3195 36.0311C31.6272 36.2779 32.0032 36.4067 32.3866 36.4067C32.5691 36.4066 32.7534 36.3775 32.9327 36.3179C33.4887 36.1331 33.9008 35.6885 34.0352 35.1285L38.9552 14.6287C39.095 14.0459 38.9022 13.4327 38.4517 13.0282ZM21.9126 27.8269C21.9096 27.8339 21.9066 27.8418 21.9038 27.8512L20.8853 31.3385L19.7487 26.1723L27.5645 21.9167L22.1 27.516C22.014 27.6043 21.9506 27.7109 21.9126 27.8269ZM22.2358 32.5713L22.6984 30.9874L23.1409 29.4723L24.7264 30.7438L22.2358 32.5713ZM37.3544 14.2597L32.4344 34.7594C32.4319 34.7696 32.4287 34.7836 32.4046 34.7916C32.3807 34.7995 32.3692 34.7905 32.361 34.7838L26.581 30.1486C26.5808 30.1485 26.5807 30.1484 26.5805 30.1483L23.9025 28.0006L32.5061 19.1846C32.7871 18.8966 32.8112 18.4507 32.5627 18.1353C32.3142 17.8198 31.8678 17.7297 31.5125 17.9233L18.773 24.8599L12.6719 22.2438C12.6533 22.2359 12.6431 22.2314 12.6446 22.2006C12.6461 22.1699 12.6567 22.1664 12.6759 22.1602L37.2956 14.2069C37.3075 14.2031 37.3209 14.1987 37.3407 14.2164C37.3605 14.2342 37.3573 14.2477 37.3544 14.2597Z" fill="white"/>
</g>
<defs>
<clipPath id="clip0_87_440">
<rect width="28" height="27.44" fill="white" transform="translate(11 10.78)"/>
</clipPath>
</defs>
</svg>
