<svg width="188" height="34" viewBox="0 0 188 34" fill="none" xmlns="http://www.w3.org/2000/svg">
<path d="M44.104 26L42.256 19.064H40.936V26H38.392V9.2H42.376C43.592 9.2 44.56 9.568 45.28 10.304C46 11.024 46.36 11.992 46.36 13.208V15.056C46.36 15.824 46.208 16.504 45.904 17.096C45.6 17.688 45.168 18.152 44.608 18.488L46.744 26H44.104ZM40.936 16.664H42.256C42.752 16.664 43.136 16.528 43.408 16.256C43.68 15.984 43.816 15.6 43.816 15.104V13.16C43.816 12.664 43.68 12.28 43.408 12.008C43.136 11.736 42.752 11.6 42.256 11.6H40.936V16.664ZM50.7417 9.2H57.9657V11.6H53.2857V16.28H57.0057V18.68H53.2857V23.6H57.9657V26H50.7417V9.2ZM65.7813 26.24C64.5973 26.24 63.6373 25.872 62.9013 25.136C62.1653 24.4 61.7973 23.44 61.7973 22.256V12.944C61.7973 11.76 62.1653 10.8 62.9013 10.064C63.6373 9.328 64.5973 8.96 65.7813 8.96C66.9653 8.96 67.9253 9.328 68.6613 10.064C69.3973 10.8 69.7653 11.76 69.7653 12.944V14.912H67.2693V12.944C67.2693 12.464 67.1333 12.08 66.8613 11.792C66.5893 11.504 66.2373 11.36 65.8053 11.36C65.3733 11.36 65.0213 11.504 64.7493 11.792C64.4773 12.08 64.3413 12.464 64.3413 12.944V22.256C64.3413 22.736 64.4773 23.12 64.7493 23.408C65.0213 23.696 65.3733 23.84 65.8053 23.84C66.2373 23.84 66.5893 23.696 66.8613 23.408C67.1333 23.12 67.2693 22.736 67.2693 22.256V19.856H69.7653V22.256C69.7653 23.44 69.3973 24.4 68.6613 25.136C67.9253 25.872 66.9653 26.24 65.7813 26.24ZM82.1714 9.2L79.3874 26H75.9794L73.1954 9.2H75.7874L77.7074 22.4L79.6274 9.2H82.1714ZM86.0564 9.2H88.6004V26H86.0564V9.2ZM93.2967 9.2H97.2807C98.4967 9.2 99.4647 9.568 100.185 10.304C100.905 11.024 101.265 11.992 101.265 13.208V21.992C101.265 23.208 100.905 24.184 100.185 24.92C99.4647 25.64 98.4967 26 97.2807 26H93.2967V9.2ZM97.1607 23.6C97.6567 23.6 98.0407 23.464 98.3127 23.192C98.5847 22.92 98.7207 22.536 98.7207 22.04V13.16C98.7207 12.664 98.5847 12.28 98.3127 12.008C98.0407 11.736 97.6567 11.6 97.1607 11.6H95.8407V23.6H97.1607ZM105.74 9.2H112.964V11.6H108.284V16.28H112.004V18.68H108.284V23.6H112.964V26H105.74V9.2ZM120.876 26.24C119.66 26.24 118.676 25.872 117.924 25.136C117.172 24.384 116.796 23.4 116.796 22.184V13.016C116.796 11.8 117.172 10.824 117.924 10.088C118.676 9.336 119.66 8.96 120.876 8.96C122.092 8.96 123.076 9.336 123.828 10.088C124.58 10.824 124.956 11.8 124.956 13.016V22.184C124.956 23.4 124.58 24.384 123.828 25.136C123.076 25.872 122.092 26.24 120.876 26.24ZM120.876 23.84C121.356 23.84 121.732 23.696 122.004 23.408C122.276 23.12 122.412 22.712 122.412 22.184V13.016C122.412 12.488 122.276 12.08 122.004 11.792C121.732 11.504 121.356 11.36 120.876 11.36C120.396 11.36 120.02 11.504 119.748 11.792C119.476 12.08 119.34 12.488 119.34 13.016V22.184C119.34 22.712 119.476 23.12 119.748 23.408C120.02 23.696 120.396 23.84 120.876 23.84ZM129.623 23.48H132.167V26H129.623V23.48ZM137.047 9.2H141.031C142.247 9.2 143.215 9.568 143.935 10.304C144.655 11.024 145.015 11.992 145.015 13.208V15.176C145.015 16.392 144.655 17.368 143.935 18.104C143.215 18.824 142.247 19.184 141.031 19.184H139.591V26H137.047V9.2ZM140.911 16.784C141.407 16.784 141.791 16.648 142.063 16.376C142.335 16.104 142.471 15.72 142.471 15.224V13.16C142.471 12.664 142.335 12.28 142.063 12.008C141.791 11.736 141.407 11.6 140.911 11.6H139.591V16.784H140.911ZM154.781 26L152.933 19.064H151.613V26H149.069V9.2H153.053C154.269 9.2 155.237 9.568 155.957 10.304C156.677 11.024 157.037 11.992 157.037 13.208V15.056C157.037 15.824 156.885 16.504 156.581 17.096C156.277 17.688 155.845 18.152 155.285 18.488L157.421 26H154.781ZM151.613 16.664H152.933C153.429 16.664 153.813 16.528 154.085 16.256C154.357 15.984 154.493 15.6 154.493 15.104V13.16C154.493 12.664 154.357 12.28 154.085 12.008C153.813 11.736 153.429 11.6 152.933 11.6H151.613V16.664ZM165.282 26.24C164.066 26.24 163.082 25.872 162.33 25.136C161.578 24.384 161.202 23.4 161.202 22.184V13.016C161.202 11.8 161.578 10.824 162.33 10.088C163.082 9.336 164.066 8.96 165.282 8.96C166.498 8.96 167.482 9.336 168.234 10.088C168.986 10.824 169.362 11.8 169.362 13.016V22.184C169.362 23.4 168.986 24.384 168.234 25.136C167.482 25.872 166.498 26.24 165.282 26.24ZM165.282 23.84C165.762 23.84 166.138 23.696 166.41 23.408C166.682 23.12 166.818 22.712 166.818 22.184V13.016C166.818 12.488 166.682 12.08 166.41 11.792C166.138 11.504 165.762 11.36 165.282 11.36C164.802 11.36 164.426 11.504 164.154 11.792C163.882 12.08 163.746 12.488 163.746 13.016V22.184C163.746 22.712 163.882 23.12 164.154 23.408C164.426 23.696 164.802 23.84 165.282 23.84Z" fill="black"/>
<circle cx="21" cy="17" r="8" fill="#820905"/>
<line y1="1.5" x2="12" y2="1.5" stroke="black" stroke-width="3"/>
<line x1="1.5" y1="12" x2="1.5" stroke="black" stroke-width="3"/>
<line x1="1.5" y1="34" x2="1.5" y2="22" stroke="black" stroke-width="3"/>
<line x1="12" y1="32.5" y2="32.5" stroke="black" stroke-width="3"/>
<line x1="186.5" x2="186.5" y2="12" stroke="black" stroke-width="3"/>
<line x1="176" y1="1.5" x2="188" y2="1.5" stroke="black" stroke-width="3"/>
<line x1="188" y1="31.5" x2="176" y2="31.5" stroke="black" stroke-width="3"/>
<line x1="186.5" y1="21" x2="186.5" y2="33" stroke="black" stroke-width="3"/>
</svg>
