<svg xmlns="http://www.w3.org/2000/svg" xmlns:xlink="http://www.w3.org/1999/xlink">

  <symbol viewBox="0 0 188 34" id="logo" fill="none">
    <path d="M44.104 26L42.256 19.064H40.936V26H38.392V9.2H42.376C43.592 9.2 44.56 9.568 45.28 10.304C46 11.024 46.36 11.992 46.36 13.208V15.056C46.36 15.824 46.208 16.504 45.904 17.096C45.6 17.688 45.168 18.152 44.608 18.488L46.744 26H44.104ZM40.936 16.664H42.256C42.752 16.664 43.136 16.528 43.408 16.256C43.68 15.984 43.816 15.6 43.816 15.104V13.16C43.816 12.664 43.68 12.28 43.408 12.008C43.136 11.736 42.752 11.6 42.256 11.6H40.936V16.664ZM50.7417 9.2H57.9657V11.6H53.2857V16.28H57.0057V18.68H53.2857V23.6H57.9657V26H50.7417V9.2ZM65.7813 26.24C64.5973 26.24 63.6373 25.872 62.9013 25.136C62.1653 24.4 61.7973 23.44 61.7973 22.256V12.944C61.7973 11.76 62.1653 10.8 62.9013 10.064C63.6373 9.328 64.5973 8.96 65.7813 8.96C66.9653 8.96 67.9253 9.328 68.6613 10.064C69.3973 10.8 69.7653 11.76 69.7653 12.944V14.912H67.2693V12.944C67.2693 12.464 67.1333 12.08 66.8613 11.792C66.5893 11.504 66.2373 11.36 65.8053 11.36C65.3733 11.36 65.0213 11.504 64.7493 11.792C64.4773 12.08 64.3413 12.464 64.3413 12.944V22.256C64.3413 22.736 64.4773 23.12 64.7493 23.408C65.0213 23.696 65.3733 23.84 65.8053 23.84C66.2373 23.84 66.5893 23.696 66.8613 23.408C67.1333 23.12 67.2693 22.736 67.2693 22.256V19.856H69.7653V22.256C69.7653 23.44 69.3973 24.4 68.6613 25.136C67.9253 25.872 66.9653 26.24 65.7813 26.24ZM82.1714 9.2L79.3874 26H75.9794L73.1954 9.2H75.7874L77.7074 22.4L79.6274 9.2H82.1714ZM86.0564 9.2H88.6004V26H86.0564V9.2ZM93.2967 9.2H97.2807C98.4967 9.2 99.4647 9.568 100.185 10.304C100.905 11.024 101.265 11.992 101.265 13.208V21.992C101.265 23.208 100.905 24.184 100.185 24.92C99.4647 25.64 98.4967 26 97.2807 26H93.2967V9.2ZM97.1607 23.6C97.6567 23.6 98.0407 23.464 98.3127 23.192C98.5847 22.92 98.7207 22.536 98.7207 22.04V13.16C98.7207 12.664 98.5847 12.28 98.3127 12.008C98.0407 11.736 97.6567 11.6 97.1607 11.6H95.8407V23.6H97.1607ZM105.74 9.2H112.964V11.6H108.284V16.28H112.004V18.68H108.284V23.6H112.964V26H105.74V9.2ZM120.876 26.24C119.66 26.24 118.676 25.872 117.924 25.136C117.172 24.384 116.796 23.4 116.796 22.184V13.016C116.796 11.8 117.172 10.824 117.924 10.088C118.676 9.336 119.66 8.96 120.876 8.96C122.092 8.96 123.076 9.336 123.828 10.088C124.58 10.824 124.956 11.8 124.956 13.016V22.184C124.956 23.4 124.58 24.384 123.828 25.136C123.076 25.872 122.092 26.24 120.876 26.24ZM120.876 23.84C121.356 23.84 121.732 23.696 122.004 23.408C122.276 23.12 122.412 22.712 122.412 22.184V13.016C122.412 12.488 122.276 12.08 122.004 11.792C121.732 11.504 121.356 11.36 120.876 11.36C120.396 11.36 120.02 11.504 119.748 11.792C119.476 12.08 119.34 12.488 119.34 13.016V22.184C119.34 22.712 119.476 23.12 119.748 23.408C120.02 23.696 120.396 23.84 120.876 23.84ZM129.623 23.48H132.167V26H129.623V23.48ZM137.047 9.2H141.031C142.247 9.2 143.215 9.568 143.935 10.304C144.655 11.024 145.015 11.992 145.015 13.208V15.176C145.015 16.392 144.655 17.368 143.935 18.104C143.215 18.824 142.247 19.184 141.031 19.184H139.591V26H137.047V9.2ZM140.911 16.784C141.407 16.784 141.791 16.648 142.063 16.376C142.335 16.104 142.471 15.72 142.471 15.224V13.16C142.471 12.664 142.335 12.28 142.063 12.008C141.791 11.736 141.407 11.6 140.911 11.6H139.591V16.784H140.911ZM154.781 26L152.933 19.064H151.613V26H149.069V9.2H153.053C154.269 9.2 155.237 9.568 155.957 10.304C156.677 11.024 157.037 11.992 157.037 13.208V15.056C157.037 15.824 156.885 16.504 156.581 17.096C156.277 17.688 155.845 18.152 155.285 18.488L157.421 26H154.781ZM151.613 16.664H152.933C153.429 16.664 153.813 16.528 154.085 16.256C154.357 15.984 154.493 15.6 154.493 15.104V13.16C154.493 12.664 154.357 12.28 154.085 12.008C153.813 11.736 153.429 11.6 152.933 11.6H151.613V16.664ZM165.282 26.24C164.066 26.24 163.082 25.872 162.33 25.136C161.578 24.384 161.202 23.4 161.202 22.184V13.016C161.202 11.8 161.578 10.824 162.33 10.088C163.082 9.336 164.066 8.96 165.282 8.96C166.498 8.96 167.482 9.336 168.234 10.088C168.986 10.824 169.362 11.8 169.362 13.016V22.184C169.362 23.4 168.986 24.384 168.234 25.136C167.482 25.872 166.498 26.24 165.282 26.24ZM165.282 23.84C165.762 23.84 166.138 23.696 166.41 23.408C166.682 23.12 166.818 22.712 166.818 22.184V13.016C166.818 12.488 166.682 12.08 166.41 11.792C166.138 11.504 165.762 11.36 165.282 11.36C164.802 11.36 164.426 11.504 164.154 11.792C163.882 12.08 163.746 12.488 163.746 13.016V22.184C163.746 22.712 163.882 23.12 164.154 23.408C164.426 23.696 164.802 23.84 165.282 23.84Z" fill="black"/>
    <circle cx="21" cy="17" r="8" fill="#820905"/>
    <line y1="1.5" x2="12" y2="1.5" stroke="black" stroke-width="3"/>
    <line x1="1.5" y1="12" x2="1.5" stroke="black" stroke-width="3"/>
    <line x1="1.5" y1="34" x2="1.5" y2="22" stroke="black" stroke-width="3"/>
    <line x1="12" y1="32.5" y2="32.5" stroke="black" stroke-width="3"/>
    <line x1="186.5" x2="186.5" y2="12" stroke="black" stroke-width="3"/>
    <line x1="176" y1="1.5" x2="188" y2="1.5" stroke="black" stroke-width="3"/>
    <line x1="188" y1="31.5" x2="176" y2="31.5" stroke="black" stroke-width="3"/>
    <line x1="186.5" y1="21" x2="186.5" y2="33" stroke="black" stroke-width="3"/>
  </symbol>
  <symbol viewBox="0 0 50 49" id="telegram" fill="none">
    <ellipse cx="25" cy="24.5" rx="25" ry="24.5"/>
    <g clip-path="url(#clip0_87_440)">
    <path d="M38.4517 13.0282C38.0013 12.6237 37.361 12.4889 36.7807 12.6764L12.1611 20.6297C11.4901 20.8465 11.0351 21.4334 11.0019 22.1249C10.9688 22.8165 11.3655 23.4428 12.0127 23.7203L18.1013 26.331C18.131 26.466 19.8789 34.4106 19.9384 34.6806C20.0146 35.0275 20.1943 35.3364 20.5749 35.4315C20.9598 35.5276 21.2318 35.3214 21.519 35.1107C21.6788 34.9934 26.0373 31.7951 26.0373 31.7951L31.3195 36.0311C31.6272 36.2779 32.0032 36.4067 32.3866 36.4067C32.5691 36.4066 32.7534 36.3775 32.9327 36.3179C33.4887 36.1331 33.9008 35.6885 34.0352 35.1285L38.9552 14.6287C39.095 14.0459 38.9022 13.4327 38.4517 13.0282ZM21.9126 27.8269C21.9096 27.8339 21.9066 27.8418 21.9038 27.8512L20.8853 31.3385L19.7487 26.1723L27.5645 21.9167L22.1 27.516C22.014 27.6043 21.9506 27.7109 21.9126 27.8269ZM22.2358 32.5713L22.6984 30.9874L23.1409 29.4723L24.7264 30.7438L22.2358 32.5713ZM37.3544 14.2597L32.4344 34.7594C32.4319 34.7696 32.4287 34.7836 32.4046 34.7916C32.3807 34.7995 32.3692 34.7905 32.361 34.7838L26.581 30.1486C26.5808 30.1485 26.5807 30.1484 26.5805 30.1483L23.9025 28.0006L32.5061 19.1846C32.7871 18.8966 32.8112 18.4507 32.5627 18.1353C32.3142 17.8198 31.8678 17.7297 31.5125 17.9233L18.773 24.8599L12.6719 22.2438C12.6533 22.2359 12.6431 22.2314 12.6446 22.2006C12.6461 22.1699 12.6567 22.1664 12.6759 22.1602L37.2956 14.2069C37.3075 14.2031 37.3209 14.1987 37.3407 14.2164C37.3605 14.2342 37.3573 14.2477 37.3544 14.2597Z" fill="white"/>
    </g>
    <defs>
    <clipPath id="clip0_87_440">
    <rect width="28" height="27.44" fill="white" transform="translate(11 10.78)"/>
    </clipPath>
    </defs>
  </symbol>
  <symbol viewBox="0 0 50 49" id="vk" fill="none">
    <ellipse cx="25" cy="24.5" rx="25" ry="24.5"/>
    <g clip-path="url(#clip0_87_436)">
    <path d="M24.2175 35.5251C29.4255 35.5251 27.5685 32.294 27.9705 31.365C27.9645 30.6712 27.9585 30.0038 27.9825 29.5981C28.3125 29.6892 29.091 30.0758 30.699 31.6075C33.1815 34.0624 33.816 35.5251 35.8215 35.5251H39.513C40.683 35.5251 41.292 35.0503 41.5965 34.6519C41.8905 34.2668 42.1785 33.5906 41.8635 32.5381C41.04 30.0038 36.237 25.6276 35.9385 25.166C35.9835 25.0807 36.0555 24.9676 36.093 24.9088H36.09C37.038 23.6813 40.656 18.3687 41.1885 16.2431C41.19 16.2402 41.1915 16.2358 41.1915 16.2313C41.4795 15.2611 41.2155 14.632 40.9425 14.2762C40.5315 13.7441 39.8775 13.4751 38.994 13.4751H35.3025C34.0665 13.4751 33.129 14.0851 32.655 15.1979C31.8615 17.1751 29.6325 21.2411 27.9615 22.6802C27.9105 20.6413 27.945 19.0846 27.972 17.9277C28.026 15.6713 28.2 13.4751 25.8105 13.4751H20.0085C18.5115 13.4751 17.079 15.0774 18.63 16.9796C19.986 18.6466 19.1175 19.5756 19.41 24.2002C18.27 23.0022 16.242 19.7667 14.808 15.6316C14.406 14.5129 13.797 13.4766 12.0825 13.4766H8.391C6.894 13.4766 6 14.2762 6 15.6154C6 18.623 12.7935 35.5251 24.2175 35.5251ZM12.0825 15.6816C12.408 15.6816 12.441 15.6816 12.6825 16.3534C14.151 20.5914 17.445 26.8624 19.851 26.8624C21.6585 26.8624 21.6585 25.0469 21.6585 24.3634L21.657 18.9214C21.558 17.1207 20.889 16.224 20.4495 15.6801L25.7115 15.686C25.7145 15.711 25.6815 21.7056 25.7265 23.158C25.7265 25.2204 27.3975 26.4023 30.006 23.8151C32.7585 20.7707 34.662 16.2196 34.7385 16.0344C34.851 15.7698 34.9485 15.6801 35.3025 15.6801H38.994H39.009C39.0075 15.6845 39.0075 15.6889 39.006 15.6933C38.6685 17.2368 35.337 22.1554 34.2225 23.6828C34.2045 23.7063 34.188 23.7313 34.1715 23.7563C33.681 24.5413 33.282 25.4086 34.239 26.6287C34.326 26.7316 34.554 26.9726 34.884 27.3078C35.91 28.3456 39.429 31.8942 39.741 33.3054C39.534 33.3377 39.309 33.3142 35.8215 33.3216C35.079 33.3216 34.4985 32.2338 32.283 30.0435C30.291 28.1442 28.998 27.3681 27.8205 27.3681C25.5345 27.3681 25.701 29.1865 25.722 31.3856C25.7295 33.7699 25.7145 33.0158 25.731 33.1657C25.5975 33.2172 25.215 33.3201 24.2175 33.3201C14.7 33.3201 8.502 18.5157 8.2635 15.686C8.346 15.6786 9.4815 15.683 12.0825 15.6816Z" fill="white"/>
    </g>
    <defs>
    <clipPath id="clip0_87_436">
    <rect width="36" height="35.28" fill="white" transform="translate(6 6.86011)"/>
    </clipPath>
    </defs>
  </symbol>
  <symbol viewBox="0 0 50 49" id="instagram" fill="none">
    <ellipse cx="25" cy="24.5" rx="25" ry="24.5"/>
    <g clip-path="url(#clip0_87_430)">
    <path d="M31.4206 10.78H18.5793C14.4 10.78 11 14.112 11 18.2078V30.7924C11 34.888 14.4 38.22 18.5793 38.22H31.4208C35.5999 38.22 38.9999 34.888 38.9999 30.7924V18.2078C38.9999 14.112 35.5999 10.78 31.4206 10.78ZM37.3585 30.7924C37.3585 34.0009 34.6948 36.6113 31.4206 36.6113H18.5793C15.3051 36.6113 12.6415 34.0009 12.6415 30.7924V18.2078C12.6415 14.9991 15.3051 12.3887 18.5793 12.3887H31.4208C34.6948 12.3887 37.3585 14.9991 37.3585 18.2078V30.7924Z" fill="white"/>
    <path d="M24.9998 16.9971C20.7782 16.9971 17.3438 20.3628 17.3438 24.5C17.3438 28.6372 20.7782 32.0029 24.9998 32.0029C29.2214 32.0029 32.6558 28.6372 32.6558 24.5C32.6558 20.3628 29.2214 16.9971 24.9998 16.9971ZM24.9998 30.3942C21.6835 30.3942 18.9852 27.7501 18.9852 24.5C18.9852 21.25 21.6835 18.6057 24.9998 18.6057C28.3163 18.6057 31.0143 21.25 31.0143 24.5C31.0143 27.7501 28.3163 30.3942 24.9998 30.3942Z" fill="white"/>
    <path d="M32.8394 14.3325C31.5919 14.3325 30.5771 15.3271 30.5771 16.5495C30.5771 17.7721 31.5919 18.7668 32.8394 18.7668C34.087 18.7668 35.1019 17.7721 35.1019 16.5495C35.1019 15.3269 34.087 14.3325 32.8394 14.3325ZM32.8394 17.1579C32.4972 17.1579 32.2186 16.8849 32.2186 16.5495C32.2186 16.2139 32.4972 15.9412 32.8394 15.9412C33.1818 15.9412 33.4604 16.2139 33.4604 16.5495C33.4604 16.8849 33.1818 17.1579 32.8394 17.1579Z" fill="white"/>
    </g>
    <defs>
    <clipPath id="clip0_87_430">
    <rect width="28" height="27.44" fill="white" transform="translate(11 10.78)"/>
    </clipPath>
    </defs>
  </symbol>





  <symbol viewBox="0 0 76 76" id="next" fill="none">
    <g id="&#208;&#186;&#208;&#189;&#208;&#190;&#208;&#191;&#208;&#186;&#208;&#176; &#209;&#129;&#209;&#130;&#209;&#128;&#208;&#181;&#208;&#187;&#208;&#186;&#208;&#176;">
    <circle id="Ellipse 10" cx="38" cy="38" r="37.75" stroke-width="0.5"/>
    <path id="Vector" d="M59.5844 38.0001H16.0757M40.8322 57.092C40.8322 57.092 42.2682 50.0428 47.5715 44.7395C52.8748 39.4362 59.9241 38.0002 59.9241 38.0002C59.9241 38.0002 53.2393 36.2651 47.6234 31.3563C42.0074 26.4475 39.956 19.7844 39.956 19.7844" />
    </g>
  </symbol>
  <symbol viewBox="0 0 76 76" id="prev" fill="none">
    <g id="&#208;&#186;&#208;&#189;&#208;&#190;&#208;&#191;&#208;&#186;&#208;&#176; &#209;&#129;&#209;&#130;&#209;&#128;&#208;&#181;&#208;&#187;&#208;&#186;&#208;&#176;">
    <circle id="Ellipse 10" cx="38" cy="38" r="37.75" stroke-width="0.5"/>
    <path id="Vector" d="M16.4154 38.0001H59.9241M35.1676 18.9082C35.1676 18.9082 33.7315 25.9574 28.4282 31.2607C23.1249 36.564 16.0757 38.0001 16.0757 38.0001C16.0757 38.0001 22.7605 39.7351 28.3764 44.6439C33.9923 49.5528 36.0437 56.2158 36.0437 56.2158" />
    </g>
  </symbol>
</svg>
